<svg width="324" height="106" viewBox="0 0 324 106" fill="none" xmlns="http://www.w3.org/2000/svg">
<g filter="url(#filter0_d_53_20)">
<rect x="12" y="9" width="300" height="82" rx="12" fill="#F9F8F6"/>
<path d="M12 13C12 10.7909 13.7909 9 16 9V91C13.7909 91 12 89.2091 12 87V13Z" fill="#F4B639"/>
<circle cx="30" cy="35" r="2" fill="#182951" fill-opacity="0.35"/>
<circle cx="40" cy="35" r="2" fill="#182951" fill-opacity="0.35"/>
<circle cx="50" cy="35" r="2" fill="#182951" fill-opacity="0.35"/>
<circle cx="30" cy="45" r="2" fill="#182951" fill-opacity="0.35"/>
<circle cx="40" cy="45" r="2" fill="#182951"/>
<circle cx="50" cy="45" r="2" fill="#182951" fill-opacity="0.35"/>
<circle cx="30" cy="55" r="2" fill="#182951" fill-opacity="0.35"/>
<circle cx="40" cy="55" r="2" fill="#182951" fill-opacity="0.35"/>
<circle cx="50" cy="55" r="2" fill="#182951" fill-opacity="0.35"/>
<path d="M70.1648 31.6364L74.7188 46.5511H74.8878L79.4418 31.6364H84.9503L78.0795 52H71.527L64.6562 31.6364H70.1648ZM87.6428 52V31.6364H101.842V35.6335H92.5646V39.8097H101.116V43.8168H92.5646V48.0028H101.842V52H87.6428ZM105.424 52V31.6364H113.836C115.361 31.6364 116.676 31.9115 117.783 32.4616C118.897 33.0052 119.755 33.7874 120.359 34.8082C120.962 35.8224 121.263 37.0256 121.263 38.4176C121.263 39.8295 120.955 41.0294 120.339 42.017C119.722 42.9981 118.847 43.7472 117.714 44.2642C116.58 44.7746 115.238 45.0298 113.687 45.0298H108.367V41.152H112.772C113.514 41.152 114.134 41.0559 114.631 40.8636C115.135 40.6648 115.516 40.3665 115.775 39.9688C116.033 39.5644 116.163 39.0473 116.163 38.4176C116.163 37.7879 116.033 37.2675 115.775 36.8565C115.516 36.4389 115.135 36.1274 114.631 35.9219C114.128 35.7098 113.508 35.6037 112.772 35.6037H110.346V52H105.424ZM116.888 42.6932L121.96 52H116.59L111.619 42.6932H116.888ZM124.463 52V31.6364H129.385V40.2472H129.653L136.385 31.6364H142.182L134.963 40.7244L142.311 52H136.425L131.354 43.9957L129.385 46.4815V52H124.463Z" fill="#182951"/>
<path d="M147.541 52V31.6364H152.463V48.0028H160.935V52H147.541ZM168.661 52H163.371L170.242 31.6364H176.794L183.665 52H178.375L173.593 36.767H173.434L168.661 52ZM167.955 43.9858H179.012V47.7244H167.955V43.9858ZM186.358 52V31.6364H194.849C196.374 31.6364 197.65 31.8518 198.677 32.2827C199.711 32.7135 200.487 33.3168 201.004 34.0923C201.528 34.8679 201.789 35.7661 201.789 36.7869C201.789 37.5625 201.627 38.2552 201.302 38.8651C200.977 39.4683 200.53 39.9687 199.96 40.3665C199.39 40.7642 198.73 41.0426 197.981 41.2017V41.4006C198.803 41.4403 199.562 41.6624 200.258 42.0668C200.961 42.4711 201.524 43.0346 201.949 43.7571C202.373 44.473 202.585 45.3215 202.585 46.3026C202.585 47.3963 202.306 48.3741 201.75 49.2358C201.193 50.0909 200.387 50.767 199.333 51.2642C198.279 51.7547 197 52 195.495 52H186.358ZM191.279 48.0327H194.322C195.389 48.0327 196.175 47.8305 196.679 47.4261C197.189 47.0218 197.444 46.4583 197.444 45.7358C197.444 45.2121 197.322 44.7614 197.076 44.3835C196.831 43.9991 196.483 43.7041 196.032 43.4986C195.582 43.2865 195.041 43.1804 194.412 43.1804H191.279V48.0327ZM191.279 40.0085H194.004C194.541 40.0085 195.018 39.919 195.436 39.7401C195.853 39.5611 196.178 39.3026 196.41 38.9645C196.649 38.6264 196.768 38.2187 196.768 37.7415C196.768 37.0587 196.526 36.5218 196.042 36.1307C195.558 35.7396 194.905 35.544 194.083 35.544H191.279V40.0085Z" fill="#F4B639"/>
<rect x="64" y="61" width="140" height="1" fill="#182951" fill-opacity="0.25"/>
<path d="M63.5993 76V70.5455H65.5435C65.9679 70.5455 66.3194 70.6227 66.5982 70.7772C66.877 70.9316 67.0856 71.1429 67.2241 71.411C67.3626 71.6774 67.4318 71.9775 67.4318 72.3113C67.4318 72.6468 67.3617 72.9487 67.2214 73.2168C67.0829 73.4831 66.8734 73.6944 66.5929 73.8507C66.3141 74.0051 65.9634 74.0824 65.5408 74.0824H64.2038V73.3846H65.4663C65.7344 73.3846 65.9519 73.3384 66.1188 73.2461C66.2857 73.152 66.4082 73.0241 66.4863 72.8626C66.5645 72.701 66.6035 72.5172 66.6035 72.3113C66.6035 72.1053 66.5645 71.9224 66.4863 71.7626C66.4082 71.6028 66.2848 71.4776 66.1161 71.3871C65.9492 71.2965 65.729 71.2512 65.4556 71.2512H64.4222V76H63.5993ZM70.5966 76V70.5455H72.5409C72.9634 70.5455 73.3141 70.6183 73.5929 70.7638C73.8734 70.9094 74.0829 71.111 74.2214 71.3684C74.3599 71.6241 74.4292 71.9197 74.4292 72.2553C74.4292 72.5891 74.359 72.883 74.2188 73.1369C74.0803 73.389 73.8708 73.5852 73.5902 73.7255C73.3115 73.8658 72.9608 73.9359 72.5382 73.9359H71.0654V73.2275H72.4636C72.73 73.2275 72.9466 73.1893 73.1135 73.1129C73.2822 73.0366 73.4056 72.9256 73.4837 72.78C73.5618 72.6344 73.6009 72.4595 73.6009 72.2553C73.6009 72.0494 73.5609 71.8709 73.481 71.72C73.4029 71.5691 73.2795 71.4537 73.1108 71.3738C72.9439 71.2921 72.7246 71.2512 72.453 71.2512H71.4196V76H70.5966ZM73.2893 73.5391L74.6369 76H73.6994L72.3784 73.5391H73.2893ZM82.3687 73.2727C82.3687 73.8551 82.2622 74.3558 82.0491 74.7749C81.836 75.1921 81.544 75.5135 81.1729 75.739C80.8035 75.9627 80.3836 76.0746 79.9131 76.0746C79.4408 76.0746 79.0191 75.9627 78.648 75.739C78.2787 75.5135 77.9875 75.1912 77.7744 74.7722C77.5614 74.3532 77.4548 73.8533 77.4548 73.2727C77.4548 72.6903 77.5614 72.1905 77.7744 71.7733C77.9875 71.3542 78.2787 71.0328 78.648 70.8091C79.0191 70.5836 79.4408 70.4709 79.9131 70.4709C80.3836 70.4709 80.8035 70.5836 81.1729 70.8091C81.544 71.0328 81.836 71.3542 82.0491 71.7733C82.2622 72.1905 82.3687 72.6903 82.3687 73.2727ZM81.5537 73.2727C81.5537 72.8288 81.4818 72.4551 81.338 72.1515C81.1959 71.8461 81.0006 71.6152 80.7521 71.459C80.5052 71.301 80.2256 71.2219 79.9131 71.2219C79.5988 71.2219 79.3183 71.301 79.0715 71.459C78.8247 71.6152 78.6294 71.8461 78.4855 72.1515C78.3435 72.4551 78.2725 72.8288 78.2725 73.2727C78.2725 73.7166 78.3435 74.0913 78.4855 74.3967C78.6294 74.7003 78.8247 74.9311 79.0715 75.0891C79.3183 75.2454 79.5988 75.3235 79.9131 75.3235C80.2256 75.3235 80.5052 75.2454 80.7521 75.0891C81.0006 74.9311 81.1959 74.7003 81.338 74.3967C81.4818 74.0913 81.5537 73.7166 81.5537 73.2727ZM87.3606 76H85.5948V70.5455H87.4165C87.9509 70.5455 88.4099 70.6547 88.7934 70.873C89.177 71.0897 89.4708 71.4013 89.675 71.8079C89.881 72.2127 89.984 72.6983 89.984 73.2647C89.984 73.8329 89.8801 74.3212 89.6724 74.7296C89.4664 75.138 89.1681 75.4522 88.7775 75.6724C88.3868 75.8908 87.9145 76 87.3606 76ZM86.4177 75.2809H87.3153C87.7308 75.2809 88.0761 75.2028 88.3513 75.0465C88.6265 74.8885 88.8325 74.6603 88.9692 74.362C89.1059 74.062 89.1743 73.6962 89.1743 73.2647C89.1743 72.8368 89.1059 72.4737 88.9692 72.1754C88.8343 71.8771 88.6328 71.6507 88.3646 71.4963C88.0965 71.3418 87.7636 71.2646 87.3659 71.2646H86.4177V75.2809ZM96.715 70.5455H97.5406V74.133C97.5406 74.5147 97.451 74.853 97.2716 75.1477C97.0923 75.4407 96.8402 75.6715 96.5152 75.8402C96.1903 76.0071 95.8095 76.0906 95.3727 76.0906C94.9377 76.0906 94.5577 76.0071 94.2327 75.8402C93.9078 75.6715 93.6557 75.4407 93.4764 75.1477C93.297 74.853 93.2074 74.5147 93.2074 74.133V70.5455H94.0303V74.0664C94.0303 74.3132 94.0845 74.5325 94.1928 74.7243C94.3029 74.916 94.4582 75.0669 94.6589 75.177C94.8595 75.2853 95.0975 75.3395 95.3727 75.3395C95.6497 75.3395 95.8885 75.2853 96.0891 75.177C96.2915 75.0669 96.446 74.916 96.5525 74.7243C96.6608 74.5325 96.715 74.3132 96.715 74.0664V70.5455ZM105.468 72.3192H104.637C104.605 72.1417 104.545 71.9854 104.458 71.8505C104.371 71.7156 104.265 71.601 104.138 71.5069C104.012 71.4128 103.871 71.3418 103.715 71.2939C103.561 71.2459 103.396 71.2219 103.222 71.2219C102.908 71.2219 102.627 71.301 102.378 71.459C102.131 71.617 101.936 71.8487 101.792 72.1541C101.65 72.4595 101.579 72.8324 101.579 73.2727C101.579 73.7166 101.65 74.0913 101.792 74.3967C101.936 74.7021 102.132 74.9329 102.381 75.0891C102.629 75.2454 102.909 75.3235 103.22 75.3235C103.392 75.3235 103.555 75.3004 103.71 75.2543C103.866 75.2063 104.007 75.1362 104.133 75.0439C104.259 74.9515 104.366 74.8388 104.453 74.7056C104.542 74.5707 104.603 74.4162 104.637 74.2422L105.468 74.2449C105.423 74.513 105.337 74.7598 105.209 74.9853C105.083 75.209 104.921 75.4025 104.722 75.5659C104.525 75.7275 104.299 75.8526 104.045 75.9414C103.791 76.0302 103.514 76.0746 103.214 76.0746C102.742 76.0746 102.321 75.9627 101.952 75.739C101.583 75.5135 101.291 75.1912 101.078 74.7722C100.867 74.3532 100.761 73.8533 100.761 73.2727C100.761 72.6903 100.868 72.1905 101.081 71.7733C101.294 71.3542 101.585 71.0328 101.955 70.8091C102.324 70.5836 102.744 70.4709 103.214 70.4709C103.504 70.4709 103.774 70.5126 104.024 70.5961C104.276 70.6777 104.502 70.7985 104.703 70.9583C104.904 71.1163 105.07 71.3098 105.201 71.5389C105.333 71.7662 105.421 72.0263 105.468 72.3192ZM108.383 71.2539V70.5455H112.605V71.2539H110.903V76H110.083V71.2539H108.383ZM121.688 76H119.922V70.5455H121.744C122.279 70.5455 122.738 70.6547 123.121 70.873C123.505 71.0897 123.798 71.4013 124.003 71.8079C124.209 72.2127 124.312 72.6983 124.312 73.2647C124.312 73.8329 124.208 74.3212 124 74.7296C123.794 75.138 123.496 75.4522 123.105 75.6724C122.714 75.8908 122.242 76 121.688 76ZM120.745 75.2809H121.643C122.058 75.2809 122.404 75.2028 122.679 75.0465C122.954 74.8885 123.16 74.6603 123.297 74.362C123.434 74.062 123.502 73.6962 123.502 73.2647C123.502 72.8368 123.434 72.4737 123.297 72.1754C123.162 71.8771 122.96 71.6507 122.692 71.4963C122.424 71.3418 122.091 71.2646 121.694 71.2646H120.745V75.2809ZM127.535 76V70.5455H130.955V71.2539H128.358V72.9158H130.776V73.6216H128.358V75.2915H130.987V76H127.535ZM137.229 71.9783C137.201 71.7262 137.083 71.5309 136.877 71.3924C136.671 71.2521 136.412 71.182 136.1 71.182C135.876 71.182 135.682 71.2175 135.519 71.2885C135.356 71.3578 135.229 71.4537 135.138 71.5762C135.049 71.6969 135.005 71.8345 135.005 71.989C135.005 72.1186 135.035 72.2305 135.096 72.3246C135.158 72.4187 135.239 72.4977 135.338 72.5616C135.439 72.6238 135.548 72.6761 135.663 72.7188C135.778 72.7596 135.889 72.7933 135.996 72.82L136.529 72.9585C136.703 73.0011 136.881 73.0588 137.064 73.1316C137.247 73.2044 137.416 73.3002 137.573 73.4192C137.729 73.5382 137.855 73.6855 137.951 73.8613C138.048 74.0371 138.097 74.2475 138.097 74.4925C138.097 74.8015 138.017 75.0758 137.858 75.3155C137.7 75.5552 137.47 75.7443 137.168 75.8828C136.868 76.0213 136.505 76.0906 136.078 76.0906C135.67 76.0906 135.317 76.0257 135.018 75.8961C134.72 75.7665 134.487 75.5827 134.318 75.3448C134.149 75.1051 134.056 74.821 134.038 74.4925H134.864C134.88 74.6896 134.944 74.8539 135.056 74.9853C135.169 75.1149 135.314 75.2116 135.49 75.2756C135.667 75.3377 135.862 75.3688 136.073 75.3688C136.306 75.3688 136.513 75.3324 136.694 75.2596C136.877 75.185 137.02 75.082 137.125 74.9506C137.23 74.8175 137.282 74.6621 137.282 74.4846C137.282 74.323 137.236 74.1907 137.144 74.0877C137.053 73.9847 136.93 73.8995 136.774 73.832C136.619 73.7646 136.444 73.7051 136.249 73.6536L135.604 73.4778C135.168 73.3588 134.821 73.1839 134.566 72.9531C134.312 72.7223 134.185 72.4169 134.185 72.0369C134.185 71.7227 134.27 71.4483 134.44 71.214C134.611 70.9796 134.842 70.7976 135.133 70.668C135.424 70.5366 135.753 70.4709 136.118 70.4709C136.488 70.4709 136.814 70.5357 137.096 70.6653C137.38 70.7949 137.604 70.9734 137.767 71.2006C137.93 71.4261 138.016 71.6854 138.023 71.9783H137.229ZM142.104 70.5455V76H141.281V70.5455H142.104ZM149.194 72.2686C149.142 72.1071 149.073 71.9624 148.986 71.8345C148.901 71.7049 148.799 71.5948 148.68 71.5043C148.561 71.4119 148.425 71.3418 148.272 71.2939C148.121 71.2459 147.955 71.2219 147.774 71.2219C147.467 71.2219 147.19 71.301 146.943 71.459C146.696 71.617 146.501 71.8487 146.357 72.1541C146.215 72.4577 146.144 72.8297 146.144 73.2701C146.144 73.7122 146.216 74.0859 146.36 74.3913C146.504 74.6967 146.701 74.9284 146.951 75.0865C147.201 75.2445 147.486 75.3235 147.806 75.3235C148.103 75.3235 148.361 75.2631 148.581 75.1424C148.803 75.0217 148.974 74.8512 149.095 74.631C149.218 74.4091 149.279 74.1481 149.279 73.848L149.492 73.888H147.931V73.2088H150.075V73.8294C150.075 74.2875 149.978 74.6852 149.782 75.0225C149.589 75.3581 149.321 75.6174 148.978 75.8002C148.637 75.9831 148.246 76.0746 147.806 76.0746C147.312 76.0746 146.879 75.9609 146.506 75.7337C146.135 75.5064 145.846 75.1841 145.638 74.7669C145.43 74.3478 145.326 73.8507 145.326 73.2754C145.326 72.8404 145.387 72.4498 145.508 72.1035C145.628 71.7573 145.798 71.4634 146.016 71.2219C146.236 70.9787 146.495 70.7931 146.791 70.6653C147.09 70.5357 147.415 70.4709 147.769 70.4709C148.063 70.4709 148.338 70.5144 148.592 70.6014C148.847 70.6884 149.075 70.8118 149.273 70.9716C149.474 71.1314 149.64 71.3214 149.772 71.5415C149.903 71.7599 149.992 72.0023 150.038 72.2686H149.194ZM157.722 70.5455V76H156.966L154.193 71.9996H154.143V76H153.32V70.5455H154.082L156.857 74.5511H156.907V70.5455H157.722ZM168.283 71.9783C168.254 71.7262 168.137 71.5309 167.931 71.3924C167.725 71.2521 167.466 71.182 167.153 71.182C166.93 71.182 166.736 71.2175 166.573 71.2885C166.409 71.3578 166.283 71.4537 166.192 71.5762C166.103 71.6969 166.059 71.8345 166.059 71.989C166.059 72.1186 166.089 72.2305 166.149 72.3246C166.212 72.4187 166.292 72.4977 166.392 72.5616C166.493 72.6238 166.601 72.6761 166.717 72.7188C166.832 72.7596 166.943 72.7933 167.05 72.82L167.582 72.9585C167.756 73.0011 167.935 73.0588 168.118 73.1316C168.3 73.2044 168.47 73.3002 168.626 73.4192C168.783 73.5382 168.909 73.6855 169.004 73.8613C169.102 74.0371 169.151 74.2475 169.151 74.4925C169.151 74.8015 169.071 75.0758 168.911 75.3155C168.753 75.5552 168.523 75.7443 168.221 75.8828C167.921 76.0213 167.558 76.0906 167.132 76.0906C166.724 76.0906 166.37 76.0257 166.072 75.8961C165.774 75.7665 165.54 75.5827 165.372 75.3448C165.203 75.1051 165.11 74.821 165.092 74.4925H165.918C165.934 74.6896 165.998 74.8539 166.109 74.9853C166.223 75.1149 166.368 75.2116 166.544 75.2756C166.721 75.3377 166.916 75.3688 167.127 75.3688C167.359 75.3688 167.566 75.3324 167.747 75.2596C167.93 75.185 168.074 75.082 168.179 74.9506C168.284 74.8175 168.336 74.6621 168.336 74.4846C168.336 74.323 168.29 74.1907 168.197 74.0877C168.107 73.9847 167.984 73.8995 167.827 73.832C167.673 73.7646 167.498 73.7051 167.303 73.6536L166.658 73.4778C166.221 73.3588 165.875 73.1839 165.619 72.9531C165.365 72.7223 165.239 72.4169 165.239 72.0369C165.239 71.7227 165.324 71.4483 165.494 71.214C165.665 70.9796 165.895 70.7976 166.187 70.668C166.478 70.5366 166.806 70.4709 167.172 70.4709C167.541 70.4709 167.867 70.5357 168.15 70.6653C168.434 70.7949 168.657 70.9734 168.821 71.2006C168.984 71.4261 169.069 71.6854 169.076 71.9783H168.283ZM172.065 71.2539V70.5455H176.287V71.2539H174.585V76H173.765V71.2539H172.065ZM182.927 70.5455H183.753V74.133C183.753 74.5147 183.663 74.853 183.484 75.1477C183.305 75.4407 183.052 75.6715 182.728 75.8402C182.403 76.0071 182.022 76.0906 181.585 76.0906C181.15 76.0906 180.77 76.0071 180.445 75.8402C180.12 75.6715 179.868 75.4407 179.689 75.1477C179.509 74.853 179.42 74.5147 179.42 74.133V70.5455H180.243V74.0664C180.243 74.3132 180.297 74.5325 180.405 74.7243C180.515 74.916 180.671 75.0669 180.871 75.177C181.072 75.2853 181.31 75.3395 181.585 75.3395C181.862 75.3395 182.101 75.2853 182.301 75.177C182.504 75.0669 182.658 74.916 182.765 74.7243C182.873 74.5325 182.927 74.3132 182.927 74.0664V70.5455ZM188.915 76H187.149V70.5455H188.971C189.506 70.5455 189.965 70.6547 190.348 70.873C190.732 71.0897 191.026 71.4013 191.23 71.8079C191.436 72.2127 191.539 72.6983 191.539 73.2647C191.539 73.8329 191.435 74.3212 191.227 74.7296C191.021 75.138 190.723 75.4522 190.332 75.6724C189.942 75.8908 189.469 76 188.915 76ZM187.972 75.2809H188.87C189.285 75.2809 189.631 75.2028 189.906 75.0465C190.181 74.8885 190.387 74.6603 190.524 74.362C190.661 74.062 190.729 73.6962 190.729 73.2647C190.729 72.8368 190.661 72.4737 190.524 72.1754C190.389 71.8771 190.187 71.6507 189.919 71.4963C189.651 71.3418 189.318 71.2646 188.921 71.2646H187.972V75.2809ZM195.585 70.5455V76H194.762V70.5455H195.585ZM203.722 73.2727C203.722 73.8551 203.615 74.3558 203.402 74.7749C203.189 75.1921 202.897 75.5135 202.526 75.739C202.156 75.9627 201.737 76.0746 201.266 76.0746C200.794 76.0746 200.372 75.9627 200.001 75.739C199.632 75.5135 199.34 75.1912 199.127 74.7722C198.914 74.3532 198.808 73.8533 198.808 73.2727C198.808 72.6903 198.914 72.1905 199.127 71.7733C199.34 71.3542 199.632 71.0328 200.001 70.8091C200.372 70.5836 200.794 70.4709 201.266 70.4709C201.737 70.4709 202.156 70.5836 202.526 70.8091C202.897 71.0328 203.189 71.3542 203.402 71.7733C203.615 72.1905 203.722 72.6903 203.722 73.2727ZM202.907 73.2727C202.907 72.8288 202.835 72.4551 202.691 72.1515C202.549 71.8461 202.354 71.6152 202.105 71.459C201.858 71.301 201.579 71.2219 201.266 71.2219C200.952 71.2219 200.671 71.301 200.424 71.459C200.178 71.6152 199.982 71.8461 199.838 72.1515C199.696 72.4551 199.625 72.8288 199.625 73.2727C199.625 73.7166 199.696 74.0913 199.838 74.3967C199.982 74.7003 200.178 74.9311 200.424 75.0891C200.671 75.2454 200.952 75.3235 201.266 75.3235C201.579 75.3235 201.858 75.2454 202.105 75.0891C202.354 74.9311 202.549 74.7003 202.691 74.3967C202.835 74.0913 202.907 73.7166 202.907 73.2727Z" fill="#182951" fill-opacity="0.5"/>
</g>
<defs>
<filter id="filter0_d_53_20" x="0" y="0" width="324" height="106" filterUnits="userSpaceOnUse" color-interpolation-filters="sRGB">
<feFlood flood-opacity="0" result="BackgroundImageFix"/>
<feColorMatrix in="SourceAlpha" type="matrix" values="0 0 0 0 0 0 0 0 0 0 0 0 0 0 0 0 0 0 127 0" result="hardAlpha"/>
<feOffset dy="3"/>
<feGaussianBlur stdDeviation="6"/>
<feColorMatrix type="matrix" values="0 0 0 0 0 0 0 0 0 0 0 0 0 0 0 0 0 0 0.08 0"/>
<feBlend mode="normal" in2="BackgroundImageFix" result="effect1_dropShadow_53_20"/>
<feBlend mode="normal" in="SourceGraphic" in2="effect1_dropShadow_53_20" result="shape"/>
</filter>
</defs>
</svg>
