<svg width="300" height="82" viewBox="0 0 300 82" fill="none" xmlns="http://www.w3.org/2000/svg">
<rect width="300" height="82" rx="12" fill="#182951"/>
<path d="M0 4C0 1.79086 1.79086 0 4 0V82C1.79086 82 0 80.2091 0 78V4Z" fill="#F4B639"/>
<circle cx="18" cy="26" r="2" fill="#F4B639" fill-opacity="0.35"/>
<circle cx="28" cy="26" r="2" fill="#F4B639" fill-opacity="0.35"/>
<circle cx="38" cy="26" r="2" fill="#F4B639" fill-opacity="0.35"/>
<circle cx="18" cy="36" r="2" fill="#F4B639" fill-opacity="0.35"/>
<circle cx="28" cy="36" r="2" fill="#F4B639"/>
<circle cx="38" cy="36" r="2" fill="#F4B639" fill-opacity="0.35"/>
<circle cx="18" cy="46" r="2" fill="#F4B639" fill-opacity="0.35"/>
<circle cx="28" cy="46" r="2" fill="#F4B639" fill-opacity="0.35"/>
<circle cx="38" cy="46" r="2" fill="#F4B639" fill-opacity="0.35"/>
<path d="M58.1648 22.6364L62.7188 37.5511H62.8878L67.4418 22.6364H72.9503L66.0795 43H59.527L52.6562 22.6364H58.1648ZM75.6428 43V22.6364H89.8416V26.6335H80.5646V30.8097H89.1158V34.8168H80.5646V39.0028H89.8416V43H75.6428ZM93.424 43V22.6364H101.836C103.361 22.6364 104.676 22.9115 105.783 23.4616C106.897 24.0052 107.755 24.7874 108.359 25.8082C108.962 26.8224 109.263 28.0256 109.263 29.4176C109.263 30.8295 108.955 32.0294 108.339 33.017C107.722 33.9981 106.847 34.7472 105.714 35.2642C104.58 35.7746 103.238 36.0298 101.687 36.0298H96.3672V32.152H100.772C101.514 32.152 102.134 32.0559 102.631 31.8636C103.135 31.6648 103.516 31.3665 103.775 30.9688C104.033 30.5644 104.163 30.0473 104.163 29.4176C104.163 28.7879 104.033 28.2675 103.775 27.8565C103.516 27.4389 103.135 27.1274 102.631 26.9219C102.128 26.7098 101.508 26.6037 100.772 26.6037H98.3459V43H93.424ZM104.888 33.6932L109.96 43H104.59L99.6186 33.6932H104.888ZM112.463 43V22.6364H117.385V31.2472H117.653L124.385 22.6364H130.182L122.963 31.7244L130.311 43H124.425L119.354 34.9957L117.385 37.4815V43H112.463Z" fill="white"/>
<path d="M135.541 43V22.6364H140.463V39.0028H148.935V43H135.541ZM156.661 43H151.371L158.242 22.6364H164.794L171.665 43H166.375L161.593 27.767H161.434L156.661 43ZM155.955 34.9858H167.012V38.7244H155.955V34.9858ZM174.358 43V22.6364H182.849C184.374 22.6364 185.65 22.8518 186.677 23.2827C187.711 23.7135 188.487 24.3168 189.004 25.0923C189.528 25.8679 189.789 26.7661 189.789 27.7869C189.789 28.5625 189.627 29.2552 189.302 29.8651C188.977 30.4683 188.53 30.9687 187.96 31.3665C187.39 31.7642 186.73 32.0426 185.981 32.2017V32.4006C186.803 32.4403 187.562 32.6624 188.258 33.0668C188.961 33.4711 189.524 34.0346 189.949 34.7571C190.373 35.473 190.585 36.3215 190.585 37.3026C190.585 38.3963 190.306 39.3741 189.75 40.2358C189.193 41.0909 188.387 41.767 187.333 42.2642C186.279 42.7547 185 43 183.495 43H174.358ZM179.279 39.0327H182.322C183.389 39.0327 184.175 38.8305 184.679 38.4261C185.189 38.0218 185.444 37.4583 185.444 36.7358C185.444 36.2121 185.322 35.7614 185.076 35.3835C184.831 34.9991 184.483 34.7041 184.032 34.4986C183.582 34.2865 183.041 34.1804 182.412 34.1804H179.279V39.0327ZM179.279 31.0085H182.004C182.541 31.0085 183.018 30.919 183.436 30.7401C183.853 30.5611 184.178 30.3026 184.41 29.9645C184.649 29.6264 184.768 29.2187 184.768 28.7415C184.768 28.0587 184.526 27.5218 184.042 27.1307C183.558 26.7396 182.905 26.544 182.083 26.544H179.279V31.0085Z" fill="#F4B639"/>
<rect x="52" y="52" width="140" height="1" fill="white" fill-opacity="0.25"/>
<path d="M51.5993 67V61.5455H53.5435C53.9679 61.5455 54.3194 61.6227 54.5982 61.7772C54.877 61.9316 55.0856 62.1429 55.2241 62.411C55.3626 62.6774 55.4318 62.9775 55.4318 63.3113C55.4318 63.6468 55.3617 63.9487 55.2214 64.2168C55.0829 64.4831 54.8734 64.6944 54.5929 64.8507C54.3141 65.0051 53.9634 65.0824 53.5408 65.0824H52.2038V64.3846H53.4663C53.7344 64.3846 53.9519 64.3384 54.1188 64.2461C54.2857 64.152 54.4082 64.0241 54.4863 63.8626C54.5645 63.701 54.6035 63.5172 54.6035 63.3113C54.6035 63.1053 54.5645 62.9224 54.4863 62.7626C54.4082 62.6028 54.2848 62.4776 54.1161 62.3871C53.9492 62.2965 53.729 62.2512 53.4556 62.2512H52.4222V67H51.5993ZM58.5966 67V61.5455H60.5409C60.9634 61.5455 61.3141 61.6183 61.5929 61.7638C61.8734 61.9094 62.0829 62.111 62.2214 62.3684C62.3599 62.6241 62.4292 62.9197 62.4292 63.2553C62.4292 63.5891 62.359 63.883 62.2188 64.1369C62.0803 64.389 61.8708 64.5852 61.5902 64.7255C61.3115 64.8658 60.9608 64.9359 60.5382 64.9359H59.0654V64.2275H60.4636C60.73 64.2275 60.9466 64.1893 61.1135 64.1129C61.2822 64.0366 61.4056 63.9256 61.4837 63.78C61.5618 63.6344 61.6009 63.4595 61.6009 63.2553C61.6009 63.0494 61.5609 62.8709 61.481 62.72C61.4029 62.5691 61.2795 62.4537 61.1108 62.3738C60.9439 62.2921 60.7246 62.2512 60.453 62.2512H59.4196V67H58.5966ZM61.2893 64.5391L62.6369 67H61.6994L60.3784 64.5391H61.2893ZM70.3687 64.2727C70.3687 64.8551 70.2622 65.3558 70.0491 65.7749C69.836 66.1921 69.544 66.5135 69.1729 66.739C68.8035 66.9627 68.3836 67.0746 67.9131 67.0746C67.4408 67.0746 67.0191 66.9627 66.648 66.739C66.2787 66.5135 65.9875 66.1912 65.7744 65.7722C65.5614 65.3532 65.4548 64.8533 65.4548 64.2727C65.4548 63.6903 65.5614 63.1905 65.7744 62.7733C65.9875 62.3542 66.2787 62.0328 66.648 61.8091C67.0191 61.5836 67.4408 61.4709 67.9131 61.4709C68.3836 61.4709 68.8035 61.5836 69.1729 61.8091C69.544 62.0328 69.836 62.3542 70.0491 62.7733C70.2622 63.1905 70.3687 63.6903 70.3687 64.2727ZM69.5537 64.2727C69.5537 63.8288 69.4818 63.4551 69.338 63.1515C69.1959 62.8461 69.0006 62.6152 68.7521 62.459C68.5052 62.301 68.2256 62.2219 67.9131 62.2219C67.5988 62.2219 67.3183 62.301 67.0715 62.459C66.8247 62.6152 66.6294 62.8461 66.4855 63.1515C66.3435 63.4551 66.2725 63.8288 66.2725 64.2727C66.2725 64.7166 66.3435 65.0913 66.4855 65.3967C66.6294 65.7003 66.8247 65.9311 67.0715 66.0891C67.3183 66.2454 67.5988 66.3235 67.9131 66.3235C68.2256 66.3235 68.5052 66.2454 68.7521 66.0891C69.0006 65.9311 69.1959 65.7003 69.338 65.3967C69.4818 65.0913 69.5537 64.7166 69.5537 64.2727ZM75.3606 67H73.5948V61.5455H75.4165C75.9509 61.5455 76.4099 61.6547 76.7934 61.873C77.177 62.0897 77.4708 62.4013 77.675 62.8079C77.881 63.2127 77.984 63.6983 77.984 64.2647C77.984 64.8329 77.8801 65.3212 77.6724 65.7296C77.4664 66.138 77.1681 66.4522 76.7775 66.6724C76.3868 66.8908 75.9145 67 75.3606 67ZM74.4177 66.2809H75.3153C75.7308 66.2809 76.0761 66.2028 76.3513 66.0465C76.6265 65.8885 76.8325 65.6603 76.9692 65.362C77.1059 65.062 77.1743 64.6962 77.1743 64.2647C77.1743 63.8368 77.1059 63.4737 76.9692 63.1754C76.8343 62.8771 76.6328 62.6507 76.3646 62.4963C76.0965 62.3418 75.7636 62.2646 75.3659 62.2646H74.4177V66.2809ZM84.715 61.5455H85.5406V65.133C85.5406 65.5147 85.451 65.853 85.2716 66.1477C85.0923 66.4407 84.8402 66.6715 84.5152 66.8402C84.1903 67.0071 83.8095 67.0906 83.3727 67.0906C82.9377 67.0906 82.5577 67.0071 82.2327 66.8402C81.9078 66.6715 81.6557 66.4407 81.4764 66.1477C81.297 65.853 81.2074 65.5147 81.2074 65.133V61.5455H82.0303V65.0664C82.0303 65.3132 82.0845 65.5325 82.1928 65.7243C82.3029 65.916 82.4582 66.0669 82.6589 66.177C82.8595 66.2853 83.0975 66.3395 83.3727 66.3395C83.6497 66.3395 83.8885 66.2853 84.0891 66.177C84.2915 66.0669 84.446 65.916 84.5525 65.7243C84.6608 65.5325 84.715 65.3132 84.715 65.0664V61.5455ZM93.4675 63.3192H92.6365C92.6046 63.1417 92.5451 62.9854 92.4581 62.8505C92.3711 62.7156 92.2646 62.601 92.1385 62.5069C92.0124 62.4128 91.8713 62.3418 91.715 62.2939C91.5605 62.2459 91.3963 62.2219 91.2223 62.2219C90.908 62.2219 90.6266 62.301 90.378 62.459C90.1312 62.617 89.9359 62.8487 89.7921 63.1541C89.65 63.4595 89.579 63.8324 89.579 64.2727C89.579 64.7166 89.65 65.0913 89.7921 65.3967C89.9359 65.7021 90.1321 65.9329 90.3807 66.0891C90.6293 66.2454 90.9089 66.3235 91.2196 66.3235C91.3919 66.3235 91.5552 66.3004 91.7097 66.2543C91.8659 66.2063 92.0071 66.1362 92.1332 66.0439C92.2592 65.9515 92.3658 65.8388 92.4528 65.7056C92.5415 65.5707 92.6028 65.4162 92.6365 65.2422L93.4675 65.2449C93.4231 65.513 93.337 65.7598 93.2092 65.9853C93.0831 66.209 92.9206 66.4025 92.7218 66.5659C92.5247 66.7275 92.2992 66.8526 92.0453 66.9414C91.7914 67.0302 91.5144 67.0746 91.2143 67.0746C90.742 67.0746 90.3212 66.9627 89.9519 66.739C89.5826 66.5135 89.2914 66.1912 89.0783 65.7722C88.867 65.3532 88.7614 64.8533 88.7614 64.2727C88.7614 63.6903 88.8679 63.1905 89.081 62.7733C89.294 62.3542 89.5852 62.0328 89.9545 61.8091C90.3239 61.5836 90.7438 61.4709 91.2143 61.4709C91.5037 61.4709 91.7736 61.5126 92.024 61.5961C92.2761 61.6777 92.5025 61.7985 92.7031 61.9583C92.9038 62.1163 93.0698 62.3098 93.2012 62.5389C93.3326 62.7662 93.4213 63.0263 93.4675 63.3192ZM96.3833 62.2539V61.5455H100.605V62.2539H98.9028V67H98.0825V62.2539H96.3833ZM109.688 67H107.922V61.5455H109.744C110.279 61.5455 110.738 61.6547 111.121 61.873C111.505 62.0897 111.798 62.4013 112.003 62.8079C112.209 63.2127 112.312 63.6983 112.312 64.2647C112.312 64.8329 112.208 65.3212 112 65.7296C111.794 66.138 111.496 66.4522 111.105 66.6724C110.714 66.8908 110.242 67 109.688 67ZM108.745 66.2809H109.643C110.058 66.2809 110.404 66.2028 110.679 66.0465C110.954 65.8885 111.16 65.6603 111.297 65.362C111.434 65.062 111.502 64.6962 111.502 64.2647C111.502 63.8368 111.434 63.4737 111.297 63.1754C111.162 62.8771 110.96 62.6507 110.692 62.4963C110.424 62.3418 110.091 62.2646 109.694 62.2646H108.745V66.2809ZM115.535 67V61.5455H118.955V62.2539H116.358V63.9158H118.776V64.6216H116.358V66.2915H118.987V67H115.535ZM125.229 62.9783C125.201 62.7262 125.083 62.5309 124.877 62.3924C124.671 62.2521 124.412 62.182 124.1 62.182C123.876 62.182 123.682 62.2175 123.519 62.2885C123.356 62.3578 123.229 62.4537 123.138 62.5762C123.049 62.6969 123.005 62.8345 123.005 62.989C123.005 63.1186 123.035 63.2305 123.096 63.3246C123.158 63.4187 123.239 63.4977 123.338 63.5616C123.439 63.6238 123.548 63.6761 123.663 63.7188C123.778 63.7596 123.889 63.7933 123.996 63.82L124.529 63.9585C124.703 64.0011 124.881 64.0588 125.064 64.1316C125.247 64.2044 125.416 64.3002 125.573 64.4192C125.729 64.5382 125.855 64.6855 125.951 64.8613C126.048 65.0371 126.097 65.2475 126.097 65.4925C126.097 65.8015 126.017 66.0758 125.858 66.3155C125.7 66.5552 125.47 66.7443 125.168 66.8828C124.868 67.0213 124.505 67.0906 124.078 67.0906C123.67 67.0906 123.317 67.0257 123.018 66.8961C122.72 66.7665 122.487 66.5827 122.318 66.3448C122.149 66.1051 122.056 65.821 122.038 65.4925H122.864C122.88 65.6896 122.944 65.8539 123.056 65.9853C123.169 66.1149 123.314 66.2116 123.49 66.2756C123.667 66.3377 123.862 66.3688 124.073 66.3688C124.306 66.3688 124.513 66.3324 124.694 66.2596C124.877 66.185 125.02 66.082 125.125 65.9506C125.23 65.8175 125.282 65.6621 125.282 65.4846C125.282 65.323 125.236 65.1907 125.144 65.0877C125.053 64.9847 124.93 64.8995 124.774 64.832C124.619 64.7646 124.444 64.7051 124.249 64.6536L123.604 64.4778C123.168 64.3588 122.821 64.1839 122.566 63.9531C122.312 63.7223 122.185 63.4169 122.185 63.0369C122.185 62.7227 122.27 62.4483 122.44 62.214C122.611 61.9796 122.842 61.7976 123.133 61.668C123.424 61.5366 123.753 61.4709 124.118 61.4709C124.488 61.4709 124.814 61.5357 125.096 61.6653C125.38 61.7949 125.604 61.9734 125.767 62.2006C125.93 62.4261 126.016 62.6854 126.023 62.9783H125.229ZM130.104 61.5455V67H129.281V61.5455H130.104ZM137.194 63.2686C137.142 63.1071 137.073 62.9624 136.986 62.8345C136.901 62.7049 136.799 62.5948 136.68 62.5043C136.561 62.4119 136.425 62.3418 136.272 62.2939C136.121 62.2459 135.955 62.2219 135.774 62.2219C135.467 62.2219 135.19 62.301 134.943 62.459C134.696 62.617 134.501 62.8487 134.357 63.1541C134.215 63.4577 134.144 63.8297 134.144 64.2701C134.144 64.7122 134.216 65.0859 134.36 65.3913C134.504 65.6967 134.701 65.9284 134.951 66.0865C135.201 66.2445 135.486 66.3235 135.806 66.3235C136.103 66.3235 136.361 66.2631 136.581 66.1424C136.803 66.0217 136.974 65.8512 137.095 65.631C137.218 65.4091 137.279 65.1481 137.279 64.848L137.492 64.888H135.931V64.2088H138.075V64.8294C138.075 65.2875 137.978 65.6852 137.782 66.0225C137.589 66.3581 137.321 66.6174 136.978 66.8002C136.637 66.9831 136.246 67.0746 135.806 67.0746C135.312 67.0746 134.879 66.9609 134.506 66.7337C134.135 66.5064 133.846 66.1841 133.638 65.7669C133.43 65.3478 133.326 64.8507 133.326 64.2754C133.326 63.8404 133.387 63.4498 133.508 63.1035C133.628 62.7573 133.798 62.4634 134.016 62.2219C134.236 61.9787 134.495 61.7931 134.791 61.6653C135.09 61.5357 135.415 61.4709 135.769 61.4709C136.063 61.4709 136.338 61.5144 136.592 61.6014C136.847 61.6884 137.075 61.8118 137.273 61.9716C137.474 62.1314 137.64 62.3214 137.772 62.5415C137.903 62.7599 137.992 63.0023 138.038 63.2686H137.194ZM145.722 61.5455V67H144.966L142.193 62.9996H142.143V67H141.32V61.5455H142.082L144.857 65.5511H144.907V61.5455H145.722ZM156.283 62.9783C156.254 62.7262 156.137 62.5309 155.931 62.3924C155.725 62.2521 155.466 62.182 155.153 62.182C154.93 62.182 154.736 62.2175 154.573 62.2885C154.409 62.3578 154.283 62.4537 154.192 62.5762C154.103 62.6969 154.059 62.8345 154.059 62.989C154.059 63.1186 154.089 63.2305 154.149 63.3246C154.212 63.4187 154.292 63.4977 154.392 63.5616C154.493 63.6238 154.601 63.6761 154.717 63.7188C154.832 63.7596 154.943 63.7933 155.05 63.82L155.582 63.9585C155.756 64.0011 155.935 64.0588 156.118 64.1316C156.3 64.2044 156.47 64.3002 156.626 64.4192C156.783 64.5382 156.909 64.6855 157.004 64.8613C157.102 65.0371 157.151 65.2475 157.151 65.4925C157.151 65.8015 157.071 66.0758 156.911 66.3155C156.753 66.5552 156.523 66.7443 156.221 66.8828C155.921 67.0213 155.558 67.0906 155.132 67.0906C154.724 67.0906 154.37 67.0257 154.072 66.8961C153.774 66.7665 153.54 66.5827 153.372 66.3448C153.203 66.1051 153.11 65.821 153.092 65.4925H153.918C153.934 65.6896 153.998 65.8539 154.109 65.9853C154.223 66.1149 154.368 66.2116 154.544 66.2756C154.721 66.3377 154.916 66.3688 155.127 66.3688C155.359 66.3688 155.566 66.3324 155.747 66.2596C155.93 66.185 156.074 66.082 156.179 65.9506C156.284 65.8175 156.336 65.6621 156.336 65.4846C156.336 65.323 156.29 65.1907 156.197 65.0877C156.107 64.9847 155.984 64.8995 155.827 64.832C155.673 64.7646 155.498 64.7051 155.303 64.6536L154.658 64.4778C154.221 64.3588 153.875 64.1839 153.619 63.9531C153.365 63.7223 153.239 63.4169 153.239 63.0369C153.239 62.7227 153.324 62.4483 153.494 62.214C153.665 61.9796 153.895 61.7976 154.187 61.668C154.478 61.5366 154.806 61.4709 155.172 61.4709C155.541 61.4709 155.867 61.5357 156.15 61.6653C156.434 61.7949 156.657 61.9734 156.821 62.2006C156.984 62.4261 157.069 62.6854 157.076 62.9783H156.283ZM160.065 62.2539V61.5455H164.287V62.2539H162.585V67H161.765V62.2539H160.065ZM170.927 61.5455H171.753V65.133C171.753 65.5147 171.663 65.853 171.484 66.1477C171.305 66.4407 171.052 66.6715 170.728 66.8402C170.403 67.0071 170.022 67.0906 169.585 67.0906C169.15 67.0906 168.77 67.0071 168.445 66.8402C168.12 66.6715 167.868 66.4407 167.689 66.1477C167.509 65.853 167.42 65.5147 167.42 65.133V61.5455H168.243V65.0664C168.243 65.3132 168.297 65.5325 168.405 65.7243C168.515 65.916 168.671 66.0669 168.871 66.177C169.072 66.2853 169.31 66.3395 169.585 66.3395C169.862 66.3395 170.101 66.2853 170.301 66.177C170.504 66.0669 170.658 65.916 170.765 65.7243C170.873 65.5325 170.927 65.3132 170.927 65.0664V61.5455ZM176.915 67H175.149V61.5455H176.971C177.506 61.5455 177.965 61.6547 178.348 61.873C178.732 62.0897 179.026 62.4013 179.23 62.8079C179.436 63.2127 179.539 63.6983 179.539 64.2647C179.539 64.8329 179.435 65.3212 179.227 65.7296C179.021 66.138 178.723 66.4522 178.332 66.6724C177.942 66.8908 177.469 67 176.915 67ZM175.972 66.2809H176.87C177.285 66.2809 177.631 66.2028 177.906 66.0465C178.181 65.8885 178.387 65.6603 178.524 65.362C178.661 65.062 178.729 64.6962 178.729 64.2647C178.729 63.8368 178.661 63.4737 178.524 63.1754C178.389 62.8771 178.187 62.6507 177.919 62.4963C177.651 62.3418 177.318 62.2646 176.921 62.2646H175.972V66.2809ZM183.585 61.5455V67H182.762V61.5455H183.585ZM191.722 64.2727C191.722 64.8551 191.615 65.3558 191.402 65.7749C191.189 66.1921 190.897 66.5135 190.526 66.739C190.156 66.9627 189.737 67.0746 189.266 67.0746C188.794 67.0746 188.372 66.9627 188.001 66.739C187.632 66.5135 187.34 66.1912 187.127 65.7722C186.914 65.3532 186.808 64.8533 186.808 64.2727C186.808 63.6903 186.914 63.1905 187.127 62.7733C187.34 62.3542 187.632 62.0328 188.001 61.8091C188.372 61.5836 188.794 61.4709 189.266 61.4709C189.737 61.4709 190.156 61.5836 190.526 61.8091C190.897 62.0328 191.189 62.3542 191.402 62.7733C191.615 63.1905 191.722 63.6903 191.722 64.2727ZM190.907 64.2727C190.907 63.8288 190.835 63.4551 190.691 63.1515C190.549 62.8461 190.354 62.6152 190.105 62.459C189.858 62.301 189.579 62.2219 189.266 62.2219C188.952 62.2219 188.671 62.301 188.424 62.459C188.178 62.6152 187.982 62.8461 187.838 63.1515C187.696 63.4551 187.625 63.8288 187.625 64.2727C187.625 64.7166 187.696 65.0913 187.838 65.3967C187.982 65.7003 188.178 65.9311 188.424 66.0891C188.671 66.2454 188.952 66.3235 189.266 66.3235C189.579 66.3235 189.858 66.2454 190.105 66.0891C190.354 65.9311 190.549 65.7003 190.691 65.3967C190.835 65.0913 190.907 64.7166 190.907 64.2727Z" fill="white" fill-opacity="0.5"/>
</svg>
