<svg width="324" height="106" viewBox="0 0 324 106" fill="none" xmlns="http://www.w3.org/2000/svg">
<g filter="url(#filter0_d_53_20)">
<rect x="12" y="9" width="300" height="82" rx="12" fill="#F9F8F6"/>
<path d="M12 13C12 10.7909 13.7909 9 16 9V91C13.7909 91 12 89.2091 12 87V13Z" fill="#F4B639"/>
<circle cx="30" cy="35" r="2" fill="#182951" fill-opacity="0.35"/>
<circle cx="40" cy="35" r="2" fill="#182951" fill-opacity="0.35"/>
<circle cx="50" cy="35" r="2" fill="#182951" fill-opacity="0.35"/>
<circle cx="30" cy="45" r="2" fill="#182951" fill-opacity="0.35"/>
<circle cx="40" cy="45" r="2" fill="#182951"/>
<circle cx="50" cy="45" r="2" fill="#182951" fill-opacity="0.35"/>
<circle cx="30" cy="55" r="2" fill="#182951" fill-opacity="0.35"/>
<circle cx="40" cy="55" r="2" fill="#182951" fill-opacity="0.35"/>
<circle cx="50" cy="55" r="2" fill="#182951" fill-opacity="0.35"/>
<path d="M70.1648 31.6364L74.7188 46.5511H74.8878L79.4418 31.6364H84.9503L78.0795 52H71.527L64.6562 31.6364H70.1648ZM87.6428 52V31.6364H101.842V35.6335H92.5646V39.8097H101.116V43.8168H92.5646V48.0028H101.842V52H87.6428ZM105.424 52V31.6364H113.836C115.361 31.6364 116.676 31.9115 117.783 32.4616C118.897 33.0052 119.755 33.7874 120.359 34.8082C120.962 35.8224 121.263 37.0256 121.263 38.4176C121.263 39.8295 120.955 41.0294 120.339 42.017C119.722 42.9981 118.847 43.7472 117.714 44.2642C116.58 44.7746 115.238 45.0298 113.687 45.0298H108.367V41.152H112.772C113.514 41.152 114.134 41.0559 114.631 40.8636C115.135 40.6648 115.516 40.3665 115.775 39.9688C116.033 39.5644 116.163 39.0473 116.163 38.4176C116.163 37.7879 116.033 37.2675 115.775 36.8565C115.516 36.4389 115.135 36.1274 114.631 35.9219C114.128 35.7098 113.508 35.6037 112.772 35.6037H110.346V52H105.424ZM116.888 42.6932L121.96 52H116.59L111.619 42.6932H116.888ZM124.463 52V31.6364H129.385V40.2472H129.653L136.385 31.6364H142.182L134.963 40.7244L142.311 52H136.425L131.354 43.9957L129.385 46.4815V52H124.463Z" fill="#182951"/>
<path d="M147.541 52V31.6364H152.463V48.0028H160.935V52H147.541ZM168.661 52H163.371L170.242 31.6364H176.794L183.665 52H178.375L173.593 36.767H173.434L168.661 52ZM167.955 43.9858H179.012V47.7244H167.955V43.9858ZM186.358 52V31.6364H194.849C196.374 31.6364 197.65 31.8518 198.677 32.2827C199.711 32.7135 200.487 33.3168 201.004 34.0923C201.528 34.8679 201.789 35.7661 201.789 36.7869C201.789 37.5625 201.627 38.2552 201.302 38.8651C200.977 39.4683 200.53 39.9687 199.96 40.3665C199.39 40.7642 198.73 41.0426 197.981 41.2017V41.4006C198.803 41.4403 199.562 41.6624 200.258 42.0668C200.961 42.4711 201.524 43.0346 201.949 43.7571C202.373 44.473 202.585 45.3215 202.585 46.3026C202.585 47.3963 202.306 48.3741 201.75 49.2358C201.193 50.0909 200.387 50.767 199.333 51.2642C198.279 51.7547 197 52 195.495 52H186.358ZM191.279 48.0327H194.322C195.389 48.0327 196.175 47.8305 196.679 47.4261C197.189 47.0218 197.444 46.4583 197.444 45.7358C197.444 45.2121 197.322 44.7614 197.076 44.3835C196.831 43.9991 196.483 43.7041 196.032 43.4986C195.582 43.2865 195.041 43.1804 194.412 43.1804H191.279V48.0327ZM191.279 40.0085H194.004C194.541 40.0085 195.018 39.919 195.436 39.7401C195.853 39.5611 196.178 39.3026 196.41 38.9645C196.649 38.6264 196.768 38.2187 196.768 37.7415C196.768 37.0587 196.526 36.5218 196.042 36.1307C195.558 35.7396 194.905 35.544 194.083 35.544H191.279V40.0085Z" fill="#F4B639"/>
<rect x="64" y="61" width="140" height="1" fill="#182951" fill-opacity="0.25"/>
<path d="M63.5993 76V70.5455H65.5435C65.9679 70.5455 66.3194 70.6227 66.5982 70.7772C66.877 70.9316 67.0856 71.1429 67.2241 71.411C67.3626 71.6774 67.4318 71.9775 67.4318 72.3113C67.4318 72.6468 67.3617 72.9487 67.2214 73.2168C67.0829 73.4831 66.8734 73.6944 66.5929 73.8507C66.3141 74.0051 65.9634 74.0824 65.5408 74.0824H64.2038V73.3846H65.4663C65.7344 73.3846 65.9519 73.3384 66.1188 73.2461C66.2857 73.152 66.4082 73.0241 66.4863 72.8626C66.5645 72.701 66.6035 72.5172 66.6035 72.3113C66.6035 72.1053 66.5645 71.9224 66.4863 71.7626C66.4082 71.6028 66.2848 71.4776 66.1161 71.3871C65.9492 71.2965 65.729 71.2512 65.4556 71.2512H64.4222V76H63.5993ZM70.5966 76V70.5455H72.5409C72.9634 70.5455 73.3141 70.6183 73.5929 70.7638C73.8734 70.9094 74.0829 71.111 74.2214 71.3684C74.3599 71.6241 74.4292 71.9197 74.4292 72.2553C74.4292 72.5891 74.359 72.883 74.2188 73.1369C74.0803 73.389 73.8708 73.5852 73.5902 73.7255C73.3115 73.8658 72.9608 73.9359 72.5382 73.9359H71.0654V73.2275H72.4636C72.73 73.2275 72.9466 73.1893 73.1135 73.1129C73.2822 73.0366 73.4056 72.9256 73.4837 72.78C73.5618 72.6344 73.6009 72.4595 73.6009 72.2553C73.6009 72.0494 73.5609 71.8709 73.481 71.72C73.4029 71.5691 73.2795 71.4537 73.1108 71.3738C72.9439 71.2921 72.7246 71.2512 72.453 71.2512H71.4196V76H70.5966ZM73.2893 73.5391L74.6369 76H73.6994L72.3784 73.5391H73.2893ZM82.3687 73.2727C82.3687 73.8551 82.2622 74.3558 82.0491 74.7749C81.836 75.1921 81.544 75.5135 81.1729 75.739C80.8035 75.9627 80.3836 76.0746 79.9131 76.0746C79.4408 76.0746 79.0191 75.9627 78.648 75.739C78.2787 75.5135 77.9875 75.1912 77.7744 74.7722C77.5614 74.3532 77.4548 73.8533 77.4548 73.2727C77.4548 72.6903 77.5614 72.1905 77.7744 71.7733C77.9875 71.3542 78.2787 71.0328 78.648 70.8091C79.0191 70.5836 79.4408 70.4709 79.9131 70.4709C80.3836 70.4709 80.8035 70.5836 81.1729 70.8091C81.544 71.0328 81.836 71.3542 82.0491 71.7733C82.2622 72.1905 82.3687 72.6903 82.3687 73.2727ZM81.5537 73.2727C81.5537 72.8288 81.4818 72.4551 81.338 72.1515C81.1959 71.8461 81.0006 71.6152 80.7521 71.459C80.5052 71.301 80.2256 71.2219 79.9131 71.2219C79.5988 71.2219 79.3183 71.301 79.0715 71.459C78.8247 71.6152 78.6294 71.8461 78.4855 72.1515C78.3435 72.4551 78.2725 72.8288 78.2725 73.2727C78.2725 73.7166 78.3435 74.0913 78.4855 74.3967C78.6294 74.7003 78.8247 74.9311 79.0715 75.0891C79.3183 75.2454 79.5988 75.3235 79.9131 75.3235C80.2256 75.3235 80.5052 75.2454 80.7521 75.0891C81.0006 74.9311 81.1959 74.7003 81.338 74.3967C81.4818 74.0913 81.5537 73.7166 81.5537 73.2727ZM87.3606 76H85.5948V70.5455H87.4165C87.9509 70.5455 88.4099 70.6547 88.7934 70.873C89.177 71.0897 89.4708 71.4013 89.675 71.8079C89.881 72.2127 89.984 72.6983 89.984 73.2647C89.984 73.8329 89.8801 74.3212 89.6724 74.7296C89.4664 75.138 89.1681 75.4522 88.7775 75.6724C88.3868 75.8908 87.9145 76 87.3606 76ZM86.4177 75.2809H87.3153C87.7308 75.2809 88.0761 75.2028 88.3513 75.0465C88.6265 74.8885 88.8325 74.6603 88.9692 74.362C89.1059 74.062 89.1743 73.6962 89.1743 73.2647C89.1743 72.8368 89.1059 72.4737 88.9692 72.1754C88.8343 71.8771 88.6328 71.6507 88.3646 71.4963C88.0965 71.3418 87.7636 71.2646 87.3659 71.2646H86.4177V75.2809ZM96.715 70.5455H97.5406V74.133C97.5406 74.5147 97.451 74.853 97.2716 75.1477C97.0923 75.4407 96.8402 75.6715 96.5152 75.8402C96.1903 76.0071 95.8095 76.0906 95.3727 76.0906C94.9377 76.0906 94.5577 76.0071 94.2327 75.8402C93.9078 75.6715 93.6557 75.4407 93.4764 75.1477C93.297 74.853 93.2074 74.5147 93.2074 74.133V70.5455H94.0303V74.0664C94.0303 74.3132 94.0845 74.5325 94.1928 74.7243C94.3029 74.916 94.4582 75.0669 94.6589 75.177C94.8595 75.2853 95.0975 75.3395 95.3727 75.3395C95.6497 75.3395 95.8885 75.2853 96.0891 75.177C96.2915 75.0669 96.446 74.916 96.5525 74.7243C96.6608 74.5325 96.715 74.3132 96.715 74.0664V70.5455ZM105.468 72.3192H104.637C104.605 72.1417 104.545 71.9854 104.458 71.8505C104.371 71.7156 104.265 71.601 104.138 71.5069C104.012 71.4128 103.871 71.3418 103.715 71.2939C103.561 71.2459 103.396 71.2219 103.222 71.2219C102.908 71.2219 102.627 71.301 102.378 71.459C102.131 71.617 101.936 71.8487 101.792 72.1541C101.65 72.4595 101.579 72.8324 101.579 73.2727C101.579 73.7166 101.65 74.0913 101.792 74.3967C101.936 74.7021 102.132 74.9329 102.381 75.0891C102.629 75.2454 102.909 75.3235 103.22 75.3235C103.392 75.3235 103.555 75.3004 103.71 75.2543C103.866 75.2063 104.007 75.1362 104.133 75.0439C104.259 74.9515 104.366 74.8388 104.453 74.7056C104.542 74.5707 104.603 74.4162 104.637 74.2422L105.468 74.2449C105.423 74.513 105.337 74.7598 105.209 74.9853C105.083 75.209 104.921 75.4025 104.722 75.5659C104.525 75.7275 104.299 75.8526 104.045 75.9414C103.791 76.0302 103.514 76.0746 103.214 76.0746C102.742 76.0746 102.321 75.9627 101.952 75.739C101.583 75.5135 101.291 75.1912 101.078 74.7722C100.867 74.3532 100.761 73.8533 100.761 73.2727C100.761 72.6903 100.868 72.1905 101.081 71.7733C101.294 71.3542 101.585 71.0328 101.955 70.8091C102.324 70.5836 102.744 70.4709 103.214 70.4709C103.504 70.4709 103.774 70.5126 104.024 70.5961C104.276 70.6777 104.502 70.7985 104.703 70.9583C104.904 71.1163 105.07 71.3098 105.201 71.5389C105.333 71.7662 105.421 72.0263 105.468 72.3192ZM108.383 71.2539V70.5455H112.605V71.2539H110.903V76H110.083V71.2539H108.383ZM120.383 76H119.51L121.472 70.5455H122.423L124.386 76H123.513L121.971 71.5362H121.928L120.383 76ZM120.53 73.864H123.363V74.5565H120.53V73.864ZM127.374 76V70.5455H129.318C129.741 70.5455 130.091 70.6183 130.37 70.7638C130.651 70.9094 130.86 71.111 130.999 71.3684C131.137 71.6241 131.206 71.9197 131.206 72.2553C131.206 72.5891 131.136 72.883 130.996 73.1369C130.858 73.389 130.648 73.5852 130.367 73.7255C130.089 73.8658 129.738 73.9359 129.315 73.9359H127.843V73.2275H129.241C129.507 73.2275 129.724 73.1893 129.891 73.1129C130.059 73.0366 130.183 72.9256 130.261 72.78C130.339 72.6344 130.378 72.4595 130.378 72.2553C130.378 72.0494 130.338 71.8709 130.258 71.72C130.18 71.5691 130.057 71.4537 129.888 71.3738C129.721 71.2921 129.502 71.2512 129.23 71.2512H128.197V76H127.374ZM130.067 73.5391L131.414 76H130.477L129.156 73.5391H130.067ZM138.938 72.3192H138.107C138.075 72.1417 138.016 71.9854 137.929 71.8505C137.842 71.7156 137.735 71.601 137.609 71.5069C137.483 71.4128 137.342 71.3418 137.186 71.2939C137.031 71.2459 136.867 71.2219 136.693 71.2219C136.379 71.2219 136.097 71.301 135.849 71.459C135.602 71.617 135.407 71.8487 135.263 72.1541C135.121 72.4595 135.05 72.8324 135.05 73.2727C135.05 73.7166 135.121 74.0913 135.263 74.3967C135.407 74.7021 135.603 74.9329 135.851 75.0891C136.1 75.2454 136.38 75.3235 136.69 75.3235C136.863 75.3235 137.026 75.3004 137.18 75.2543C137.337 75.2063 137.478 75.1362 137.604 75.0439C137.73 74.9515 137.836 74.8388 137.923 74.7056C138.012 74.5707 138.074 74.4162 138.107 74.2422L138.938 74.2449C138.894 74.513 138.808 74.7598 138.68 74.9853C138.554 75.209 138.391 75.4025 138.192 75.5659C137.995 75.7275 137.77 75.8526 137.516 75.9414C137.262 76.0302 136.985 76.0746 136.685 76.0746C136.213 76.0746 135.792 75.9627 135.423 75.739C135.053 75.5135 134.762 75.1912 134.549 74.7722C134.338 74.3532 134.232 73.8533 134.232 73.2727C134.232 72.6903 134.339 72.1905 134.552 71.7733C134.765 71.3542 135.056 71.0328 135.425 70.8091C135.795 70.5836 136.214 70.4709 136.685 70.4709C136.974 70.4709 137.244 70.5126 137.495 70.5961C137.747 70.6777 137.973 70.7985 138.174 70.9583C138.374 71.1163 138.54 71.3098 138.672 71.5389C138.803 71.7662 138.892 72.0263 138.938 72.3192ZM142.123 76V70.5455H142.946V72.9158H145.665V70.5455H146.491V76H145.665V73.6216H142.946V76H142.123ZM150.712 70.5455V76H149.889V70.5455H150.712ZM153.842 71.2539V70.5455H158.063V71.2539H156.361V76H155.541V71.2539H153.842ZM161.196 76V70.5455H164.616V71.2539H162.019V72.9158H164.437V73.6216H162.019V75.2915H164.648V76H161.196ZM172.446 72.3192H171.615C171.583 72.1417 171.523 71.9854 171.436 71.8505C171.349 71.7156 171.243 71.601 171.117 71.5069C170.99 71.4128 170.849 71.3418 170.693 71.2939C170.539 71.2459 170.374 71.2219 170.2 71.2219C169.886 71.2219 169.605 71.301 169.356 71.459C169.109 71.617 168.914 71.8487 168.77 72.1541C168.628 72.4595 168.557 72.8324 168.557 73.2727C168.557 73.7166 168.628 74.0913 168.77 74.3967C168.914 74.7021 169.11 74.9329 169.359 75.0891C169.607 75.2454 169.887 75.3235 170.198 75.3235C170.37 75.3235 170.533 75.3004 170.688 75.2543C170.844 75.2063 170.985 75.1362 171.111 75.0439C171.237 74.9515 171.344 74.8388 171.431 74.7056C171.52 74.5707 171.581 74.4162 171.615 74.2422L172.446 74.2449C172.401 74.513 172.315 74.7598 172.187 74.9853C172.061 75.209 171.899 75.4025 171.7 75.5659C171.503 75.7275 171.277 75.8526 171.023 75.9414C170.769 76.0302 170.492 76.0746 170.192 76.0746C169.72 76.0746 169.299 75.9627 168.93 75.739C168.561 75.5135 168.269 75.1912 168.056 74.7722C167.845 74.3532 167.739 73.8533 167.739 73.2727C167.739 72.6903 167.846 72.1905 168.059 71.7733C168.272 71.3542 168.563 71.0328 168.933 70.8091C169.302 70.5836 169.722 70.4709 170.192 70.4709C170.482 70.4709 170.752 70.5126 171.002 70.5961C171.254 70.6777 171.481 70.7985 171.681 70.9583C171.882 71.1163 172.048 71.3098 172.179 71.5389C172.311 71.7662 172.399 72.0263 172.446 72.3192ZM175.361 71.2539V70.5455H179.583V71.2539H177.881V76H177.061V71.2539H175.361ZM186.223 70.5455H187.049V74.133C187.049 74.5147 186.959 74.853 186.78 75.1477C186.601 75.4407 186.348 75.6715 186.023 75.8402C185.699 76.0071 185.318 76.0906 184.881 76.0906C184.446 76.0906 184.066 76.0071 183.741 75.8402C183.416 75.6715 183.164 75.4407 182.985 75.1477C182.805 74.853 182.716 74.5147 182.716 74.133V70.5455H183.539V74.0664C183.539 74.3132 183.593 74.5325 183.701 74.7243C183.811 74.916 183.966 75.0669 184.167 75.177C184.368 75.2853 184.606 75.3395 184.881 75.3395C185.158 75.3395 185.397 75.2853 185.597 75.177C185.8 75.0669 185.954 74.916 186.061 74.7243C186.169 74.5325 186.223 74.3132 186.223 74.0664V70.5455ZM190.445 76V70.5455H192.39C192.812 70.5455 193.163 70.6183 193.442 70.7638C193.722 70.9094 193.932 71.111 194.07 71.3684C194.209 71.6241 194.278 71.9197 194.278 72.2553C194.278 72.5891 194.208 72.883 194.068 73.1369C193.929 73.389 193.719 73.5852 193.439 73.7255C193.16 73.8658 192.81 73.9359 192.387 73.9359H190.914V73.2275H192.312C192.579 73.2275 192.795 73.1893 192.962 73.1129C193.131 73.0366 193.254 72.9256 193.332 72.78C193.411 72.6344 193.45 72.4595 193.45 72.2553C193.45 72.0494 193.41 71.8709 193.33 71.72C193.252 71.5691 193.128 71.4537 192.96 71.3738C192.793 71.2921 192.573 71.2512 192.302 71.2512H191.268V76H190.445ZM193.138 73.5391L194.486 76H193.548L192.227 73.5391H193.138ZM197.479 76V70.5455H200.899V71.2539H198.302V72.9158H200.721V73.6216H198.302V75.2915H200.931V76H197.479Z" fill="#182951" fill-opacity="0.5"/>
</g>
<defs>
<filter id="filter0_d_53_20" x="0" y="0" width="324" height="106" filterUnits="userSpaceOnUse" color-interpolation-filters="sRGB">
<feFlood flood-opacity="0" result="BackgroundImageFix"/>
<feColorMatrix in="SourceAlpha" type="matrix" values="0 0 0 0 0 0 0 0 0 0 0 0 0 0 0 0 0 0 127 0" result="hardAlpha"/>
<feOffset dy="3"/>
<feGaussianBlur stdDeviation="6"/>
<feColorMatrix type="matrix" values="0 0 0 0 0 0 0 0 0 0 0 0 0 0 0 0 0 0 0.08 0"/>
<feBlend mode="normal" in2="BackgroundImageFix" result="effect1_dropShadow_53_20"/>
<feBlend mode="normal" in="SourceGraphic" in2="effect1_dropShadow_53_20" result="shape"/>
</filter>
</defs>
</svg>
