<svg width="300" height="82" viewBox="0 0 300 82" fill="none" xmlns="http://www.w3.org/2000/svg">
<rect width="300" height="82" rx="12" fill="#182951"/>
<path d="M0 4C0 1.79086 1.79086 0 4 0V82C1.79086 82 0 80.2091 0 78V4Z" fill="#F4B639"/>
<circle cx="18" cy="26" r="2" fill="#F4B639" fill-opacity="0.35"/>
<circle cx="28" cy="26" r="2" fill="#F4B639" fill-opacity="0.35"/>
<circle cx="38" cy="26" r="2" fill="#F4B639" fill-opacity="0.35"/>
<circle cx="18" cy="36" r="2" fill="#F4B639" fill-opacity="0.35"/>
<circle cx="28" cy="36" r="2" fill="#F4B639"/>
<circle cx="38" cy="36" r="2" fill="#F4B639" fill-opacity="0.35"/>
<circle cx="18" cy="46" r="2" fill="#F4B639" fill-opacity="0.35"/>
<circle cx="28" cy="46" r="2" fill="#F4B639" fill-opacity="0.35"/>
<circle cx="38" cy="46" r="2" fill="#F4B639" fill-opacity="0.35"/>
<path d="M58.1648 22.6364L62.7188 37.5511H62.8878L67.4418 22.6364H72.9503L66.0795 43H59.527L52.6562 22.6364H58.1648ZM75.6428 43V22.6364H89.8416V26.6335H80.5646V30.8097H89.1158V34.8168H80.5646V39.0028H89.8416V43H75.6428ZM93.424 43V22.6364H101.836C103.361 22.6364 104.676 22.9115 105.783 23.4616C106.897 24.0052 107.755 24.7874 108.359 25.8082C108.962 26.8224 109.263 28.0256 109.263 29.4176C109.263 30.8295 108.955 32.0294 108.339 33.017C107.722 33.9981 106.847 34.7472 105.714 35.2642C104.58 35.7746 103.238 36.0298 101.687 36.0298H96.3672V32.152H100.772C101.514 32.152 102.134 32.0559 102.631 31.8636C103.135 31.6648 103.516 31.3665 103.775 30.9688C104.033 30.5644 104.163 30.0473 104.163 29.4176C104.163 28.7879 104.033 28.2675 103.775 27.8565C103.516 27.4389 103.135 27.1274 102.631 26.9219C102.128 26.7098 101.508 26.6037 100.772 26.6037H98.3459V43H93.424ZM104.888 33.6932L109.96 43H104.59L99.6186 33.6932H104.888ZM112.463 43V22.6364H117.385V31.2472H117.653L124.385 22.6364H130.182L122.963 31.7244L130.311 43H124.425L119.354 34.9957L117.385 37.4815V43H112.463Z" fill="white"/>
<path d="M135.541 43V22.6364H140.463V39.0028H148.935V43H135.541ZM156.661 43H151.371L158.242 22.6364H164.794L171.665 43H166.375L161.593 27.767H161.434L156.661 43ZM155.955 34.9858H167.012V38.7244H155.955V34.9858ZM174.358 43V22.6364H182.849C184.374 22.6364 185.65 22.8518 186.677 23.2827C187.711 23.7135 188.487 24.3168 189.004 25.0923C189.528 25.8679 189.789 26.7661 189.789 27.7869C189.789 28.5625 189.627 29.2552 189.302 29.8651C188.977 30.4683 188.53 30.9687 187.96 31.3665C187.39 31.7642 186.73 32.0426 185.981 32.2017V32.4006C186.803 32.4403 187.562 32.6624 188.258 33.0668C188.961 33.4711 189.524 34.0346 189.949 34.7571C190.373 35.473 190.585 36.3215 190.585 37.3026C190.585 38.3963 190.306 39.3741 189.75 40.2358C189.193 41.0909 188.387 41.767 187.333 42.2642C186.279 42.7547 185 43 183.495 43H174.358ZM179.279 39.0327H182.322C183.389 39.0327 184.175 38.8305 184.679 38.4261C185.189 38.0218 185.444 37.4583 185.444 36.7358C185.444 36.2121 185.322 35.7614 185.076 35.3835C184.831 34.9991 184.483 34.7041 184.032 34.4986C183.582 34.2865 183.041 34.1804 182.412 34.1804H179.279V39.0327ZM179.279 31.0085H182.004C182.541 31.0085 183.018 30.919 183.436 30.7401C183.853 30.5611 184.178 30.3026 184.41 29.9645C184.649 29.6264 184.768 29.2187 184.768 28.7415C184.768 28.0587 184.526 27.5218 184.042 27.1307C183.558 26.7396 182.905 26.544 182.083 26.544H179.279V31.0085Z" fill="#F4B639"/>
<rect x="52" y="52" width="140" height="1" fill="white" fill-opacity="0.25"/>
<path d="M51.5993 67V61.5455H53.5435C53.9679 61.5455 54.3194 61.6227 54.5982 61.7772C54.877 61.9316 55.0856 62.1429 55.2241 62.411C55.3626 62.6774 55.4318 62.9775 55.4318 63.3113C55.4318 63.6468 55.3617 63.9487 55.2214 64.2168C55.0829 64.4831 54.8734 64.6944 54.5929 64.8507C54.3141 65.0051 53.9634 65.0824 53.5408 65.0824H52.2038V64.3846H53.4663C53.7344 64.3846 53.9519 64.3384 54.1188 64.2461C54.2857 64.152 54.4082 64.0241 54.4863 63.8626C54.5645 63.701 54.6035 63.5172 54.6035 63.3113C54.6035 63.1053 54.5645 62.9224 54.4863 62.7626C54.4082 62.6028 54.2848 62.4776 54.1161 62.3871C53.9492 62.2965 53.729 62.2512 53.4556 62.2512H52.4222V67H51.5993ZM58.5966 67V61.5455H60.5409C60.9634 61.5455 61.3141 61.6183 61.5929 61.7638C61.8734 61.9094 62.0829 62.111 62.2214 62.3684C62.3599 62.6241 62.4292 62.9197 62.4292 63.2553C62.4292 63.5891 62.359 63.883 62.2188 64.1369C62.0803 64.389 61.8708 64.5852 61.5902 64.7255C61.3115 64.8658 60.9608 64.9359 60.5382 64.9359H59.0654V64.2275H60.4636C60.73 64.2275 60.9466 64.1893 61.1135 64.1129C61.2822 64.0366 61.4056 63.9256 61.4837 63.78C61.5618 63.6344 61.6009 63.4595 61.6009 63.2553C61.6009 63.0494 61.5609 62.8709 61.481 62.72C61.4029 62.5691 61.2795 62.4537 61.1108 62.3738C60.9439 62.2921 60.7246 62.2512 60.453 62.2512H59.4196V67H58.5966ZM61.2893 64.5391L62.6369 67H61.6994L60.3784 64.5391H61.2893ZM70.3687 64.2727C70.3687 64.8551 70.2622 65.3558 70.0491 65.7749C69.836 66.1921 69.544 66.5135 69.1729 66.739C68.8035 66.9627 68.3836 67.0746 67.9131 67.0746C67.4408 67.0746 67.0191 66.9627 66.648 66.739C66.2787 66.5135 65.9875 66.1912 65.7744 65.7722C65.5614 65.3532 65.4548 64.8533 65.4548 64.2727C65.4548 63.6903 65.5614 63.1905 65.7744 62.7733C65.9875 62.3542 66.2787 62.0328 66.648 61.8091C67.0191 61.5836 67.4408 61.4709 67.9131 61.4709C68.3836 61.4709 68.8035 61.5836 69.1729 61.8091C69.544 62.0328 69.836 62.3542 70.0491 62.7733C70.2622 63.1905 70.3687 63.6903 70.3687 64.2727ZM69.5537 64.2727C69.5537 63.8288 69.4818 63.4551 69.338 63.1515C69.1959 62.8461 69.0006 62.6152 68.7521 62.459C68.5052 62.301 68.2256 62.2219 67.9131 62.2219C67.5988 62.2219 67.3183 62.301 67.0715 62.459C66.8247 62.6152 66.6294 62.8461 66.4855 63.1515C66.3435 63.4551 66.2725 63.8288 66.2725 64.2727C66.2725 64.7166 66.3435 65.0913 66.4855 65.3967C66.6294 65.7003 66.8247 65.9311 67.0715 66.0891C67.3183 66.2454 67.5988 66.3235 67.9131 66.3235C68.2256 66.3235 68.5052 66.2454 68.7521 66.0891C69.0006 65.9311 69.1959 65.7003 69.338 65.3967C69.4818 65.0913 69.5537 64.7166 69.5537 64.2727ZM75.3606 67H73.5948V61.5455H75.4165C75.9509 61.5455 76.4099 61.6547 76.7934 61.873C77.177 62.0897 77.4708 62.4013 77.675 62.8079C77.881 63.2127 77.984 63.6983 77.984 64.2647C77.984 64.8329 77.8801 65.3212 77.6724 65.7296C77.4664 66.138 77.1681 66.4522 76.7775 66.6724C76.3868 66.8908 75.9145 67 75.3606 67ZM74.4177 66.2809H75.3153C75.7308 66.2809 76.0761 66.2028 76.3513 66.0465C76.6265 65.8885 76.8325 65.6603 76.9692 65.362C77.1059 65.062 77.1743 64.6962 77.1743 64.2647C77.1743 63.8368 77.1059 63.4737 76.9692 63.1754C76.8343 62.8771 76.6328 62.6507 76.3646 62.4963C76.0965 62.3418 75.7636 62.2646 75.3659 62.2646H74.4177V66.2809ZM84.715 61.5455H85.5406V65.133C85.5406 65.5147 85.451 65.853 85.2716 66.1477C85.0923 66.4407 84.8402 66.6715 84.5152 66.8402C84.1903 67.0071 83.8095 67.0906 83.3727 67.0906C82.9377 67.0906 82.5577 67.0071 82.2327 66.8402C81.9078 66.6715 81.6557 66.4407 81.4764 66.1477C81.297 65.853 81.2074 65.5147 81.2074 65.133V61.5455H82.0303V65.0664C82.0303 65.3132 82.0845 65.5325 82.1928 65.7243C82.3029 65.916 82.4582 66.0669 82.6589 66.177C82.8595 66.2853 83.0975 66.3395 83.3727 66.3395C83.6497 66.3395 83.8885 66.2853 84.0891 66.177C84.2915 66.0669 84.446 65.916 84.5525 65.7243C84.6608 65.5325 84.715 65.3132 84.715 65.0664V61.5455ZM93.4675 63.3192H92.6365C92.6046 63.1417 92.5451 62.9854 92.4581 62.8505C92.3711 62.7156 92.2646 62.601 92.1385 62.5069C92.0124 62.4128 91.8713 62.3418 91.715 62.2939C91.5605 62.2459 91.3963 62.2219 91.2223 62.2219C90.908 62.2219 90.6266 62.301 90.378 62.459C90.1312 62.617 89.9359 62.8487 89.7921 63.1541C89.65 63.4595 89.579 63.8324 89.579 64.2727C89.579 64.7166 89.65 65.0913 89.7921 65.3967C89.9359 65.7021 90.1321 65.9329 90.3807 66.0891C90.6293 66.2454 90.9089 66.3235 91.2196 66.3235C91.3919 66.3235 91.5552 66.3004 91.7097 66.2543C91.8659 66.2063 92.0071 66.1362 92.1332 66.0439C92.2592 65.9515 92.3658 65.8388 92.4528 65.7056C92.5415 65.5707 92.6028 65.4162 92.6365 65.2422L93.4675 65.2449C93.4231 65.513 93.337 65.7598 93.2092 65.9853C93.0831 66.209 92.9206 66.4025 92.7218 66.5659C92.5247 66.7275 92.2992 66.8526 92.0453 66.9414C91.7914 67.0302 91.5144 67.0746 91.2143 67.0746C90.742 67.0746 90.3212 66.9627 89.9519 66.739C89.5826 66.5135 89.2914 66.1912 89.0783 65.7722C88.867 65.3532 88.7614 64.8533 88.7614 64.2727C88.7614 63.6903 88.8679 63.1905 89.081 62.7733C89.294 62.3542 89.5852 62.0328 89.9545 61.8091C90.3239 61.5836 90.7438 61.4709 91.2143 61.4709C91.5037 61.4709 91.7736 61.5126 92.024 61.5961C92.2761 61.6777 92.5025 61.7985 92.7031 61.9583C92.9038 62.1163 93.0698 62.3098 93.2012 62.5389C93.3326 62.7662 93.4213 63.0263 93.4675 63.3192ZM96.3833 62.2539V61.5455H100.605V62.2539H98.9028V67H98.0825V62.2539H96.3833ZM108.383 67H107.51L109.472 61.5455H110.423L112.386 67H111.513L109.971 62.5362H109.928L108.383 67ZM108.53 64.864H111.363V65.5565H108.53V64.864ZM115.374 67V61.5455H117.318C117.741 61.5455 118.091 61.6183 118.37 61.7638C118.651 61.9094 118.86 62.111 118.999 62.3684C119.137 62.6241 119.206 62.9197 119.206 63.2553C119.206 63.5891 119.136 63.883 118.996 64.1369C118.858 64.389 118.648 64.5852 118.367 64.7255C118.089 64.8658 117.738 64.9359 117.315 64.9359H115.843V64.2275H117.241C117.507 64.2275 117.724 64.1893 117.891 64.1129C118.059 64.0366 118.183 63.9256 118.261 63.78C118.339 63.6344 118.378 63.4595 118.378 63.2553C118.378 63.0494 118.338 62.8709 118.258 62.72C118.18 62.5691 118.057 62.4537 117.888 62.3738C117.721 62.2921 117.502 62.2512 117.23 62.2512H116.197V67H115.374ZM118.067 64.5391L119.414 67H118.477L117.156 64.5391H118.067ZM126.938 63.3192H126.107C126.075 63.1417 126.016 62.9854 125.929 62.8505C125.842 62.7156 125.735 62.601 125.609 62.5069C125.483 62.4128 125.342 62.3418 125.186 62.2939C125.031 62.2459 124.867 62.2219 124.693 62.2219C124.379 62.2219 124.097 62.301 123.849 62.459C123.602 62.617 123.407 62.8487 123.263 63.1541C123.121 63.4595 123.05 63.8324 123.05 64.2727C123.05 64.7166 123.121 65.0913 123.263 65.3967C123.407 65.7021 123.603 65.9329 123.851 66.0891C124.1 66.2454 124.38 66.3235 124.69 66.3235C124.863 66.3235 125.026 66.3004 125.18 66.2543C125.337 66.2063 125.478 66.1362 125.604 66.0439C125.73 65.9515 125.836 65.8388 125.923 65.7056C126.012 65.5707 126.074 65.4162 126.107 65.2422L126.938 65.2449C126.894 65.513 126.808 65.7598 126.68 65.9853C126.554 66.209 126.391 66.4025 126.192 66.5659C125.995 66.7275 125.77 66.8526 125.516 66.9414C125.262 67.0302 124.985 67.0746 124.685 67.0746C124.213 67.0746 123.792 66.9627 123.423 66.739C123.053 66.5135 122.762 66.1912 122.549 65.7722C122.338 65.3532 122.232 64.8533 122.232 64.2727C122.232 63.6903 122.339 63.1905 122.552 62.7733C122.765 62.3542 123.056 62.0328 123.425 61.8091C123.795 61.5836 124.214 61.4709 124.685 61.4709C124.974 61.4709 125.244 61.5126 125.495 61.5961C125.747 61.6777 125.973 61.7985 126.174 61.9583C126.374 62.1163 126.54 62.3098 126.672 62.5389C126.803 62.7662 126.892 63.0263 126.938 63.3192ZM130.123 67V61.5455H130.946V63.9158H133.665V61.5455H134.491V67H133.665V64.6216H130.946V67H130.123ZM138.712 61.5455V67H137.889V61.5455H138.712ZM141.842 62.2539V61.5455H146.063V62.2539H144.361V67H143.541V62.2539H141.842ZM149.196 67V61.5455H152.616V62.2539H150.019V63.9158H152.437V64.6216H150.019V66.2915H152.648V67H149.196ZM160.446 63.3192H159.615C159.583 63.1417 159.523 62.9854 159.436 62.8505C159.349 62.7156 159.243 62.601 159.117 62.5069C158.99 62.4128 158.849 62.3418 158.693 62.2939C158.539 62.2459 158.374 62.2219 158.2 62.2219C157.886 62.2219 157.605 62.301 157.356 62.459C157.109 62.617 156.914 62.8487 156.77 63.1541C156.628 63.4595 156.557 63.8324 156.557 64.2727C156.557 64.7166 156.628 65.0913 156.77 65.3967C156.914 65.7021 157.11 65.9329 157.359 66.0891C157.607 66.2454 157.887 66.3235 158.198 66.3235C158.37 66.3235 158.533 66.3004 158.688 66.2543C158.844 66.2063 158.985 66.1362 159.111 66.0439C159.237 65.9515 159.344 65.8388 159.431 65.7056C159.52 65.5707 159.581 65.4162 159.615 65.2422L160.446 65.2449C160.401 65.513 160.315 65.7598 160.187 65.9853C160.061 66.209 159.899 66.4025 159.7 66.5659C159.503 66.7275 159.277 66.8526 159.023 66.9414C158.769 67.0302 158.492 67.0746 158.192 67.0746C157.72 67.0746 157.299 66.9627 156.93 66.739C156.561 66.5135 156.269 66.1912 156.056 65.7722C155.845 65.3532 155.739 64.8533 155.739 64.2727C155.739 63.6903 155.846 63.1905 156.059 62.7733C156.272 62.3542 156.563 62.0328 156.933 61.8091C157.302 61.5836 157.722 61.4709 158.192 61.4709C158.482 61.4709 158.752 61.5126 159.002 61.5961C159.254 61.6777 159.481 61.7985 159.681 61.9583C159.882 62.1163 160.048 62.3098 160.179 62.5389C160.311 62.7662 160.399 63.0263 160.446 63.3192ZM163.361 62.2539V61.5455H167.583V62.2539H165.881V67H165.061V62.2539H163.361ZM174.223 61.5455H175.049V65.133C175.049 65.5147 174.959 65.853 174.78 66.1477C174.601 66.4407 174.348 66.6715 174.023 66.8402C173.699 67.0071 173.318 67.0906 172.881 67.0906C172.446 67.0906 172.066 67.0071 171.741 66.8402C171.416 66.6715 171.164 66.4407 170.985 66.1477C170.805 65.853 170.716 65.5147 170.716 65.133V61.5455H171.539V65.0664C171.539 65.3132 171.593 65.5325 171.701 65.7243C171.811 65.916 171.966 66.0669 172.167 66.177C172.368 66.2853 172.606 66.3395 172.881 66.3395C173.158 66.3395 173.397 66.2853 173.597 66.177C173.8 66.0669 173.954 65.916 174.061 65.7243C174.169 65.5325 174.223 65.3132 174.223 65.0664V61.5455ZM178.445 67V61.5455H180.39C180.812 61.5455 181.163 61.6183 181.442 61.7638C181.722 61.9094 181.932 62.111 182.07 62.3684C182.209 62.6241 182.278 62.9197 182.278 63.2553C182.278 63.5891 182.208 63.883 182.068 64.1369C181.929 64.389 181.719 64.5852 181.439 64.7255C181.16 64.8658 180.81 64.9359 180.387 64.9359H178.914V64.2275H180.312C180.579 64.2275 180.795 64.1893 180.962 64.1129C181.131 64.0366 181.254 63.9256 181.332 63.78C181.411 63.6344 181.45 63.4595 181.45 63.2553C181.45 63.0494 181.41 62.8709 181.33 62.72C181.252 62.5691 181.128 62.4537 180.96 62.3738C180.793 62.2921 180.573 62.2512 180.302 62.2512H179.268V67H178.445ZM181.138 64.5391L182.486 67H181.548L180.227 64.5391H181.138ZM185.479 67V61.5455H188.899V62.2539H186.302V63.9158H188.721V64.6216H186.302V66.2915H188.931V67H185.479Z" fill="white" fill-opacity="0.5"/>
</svg>
