<svg width="220" height="52" viewBox="0 0 220 52" fill="none" xmlns="http://www.w3.org/2000/svg">
<rect width="220" height="52" rx="8" fill="#223A75"/>
<circle cx="10" cy="10" r="2" fill="white" fill-opacity="0.35"/>
<circle cx="20" cy="10" r="2" fill="white" fill-opacity="0.35"/>
<circle cx="30" cy="10" r="2" fill="white" fill-opacity="0.35"/>
<circle cx="10" cy="20" r="2" fill="white" fill-opacity="0.35"/>
<circle cx="20" cy="20" r="2" fill="white"/>
<circle cx="30" cy="20" r="2" fill="white" fill-opacity="0.35"/>
<circle cx="10" cy="30" r="2" fill="white" fill-opacity="0.35"/>
<circle cx="20" cy="30" r="2" fill="white" fill-opacity="0.35"/>
<circle cx="30" cy="30" r="2" fill="white" fill-opacity="0.35"/>
<path d="M49.2841 15.5455L53.1875 28.3295H53.3324L57.2358 15.5455H61.9574L56.0682 33H50.4517L44.5625 15.5455H49.2841ZM64.3366 33V15.5455H76.5071V18.9716H68.5554V22.5511H75.8849V25.9858H68.5554V29.5739H76.5071V33H64.3366ZM79.6491 33V15.5455H86.8594C88.1662 15.5455 89.294 15.7812 90.2429 16.2528C91.1974 16.7187 91.9332 17.3892 92.4503 18.2642C92.9673 19.1335 93.2259 20.1648 93.2259 21.358C93.2259 22.5682 92.9616 23.5966 92.4332 24.4432C91.9048 25.2841 91.1548 25.9261 90.1832 26.3693C89.2116 26.8068 88.0611 27.0256 86.7315 27.0256H82.1719V23.7017H85.9474C86.5838 23.7017 87.1151 23.6193 87.5412 23.4545C87.973 23.2841 88.2997 23.0284 88.5213 22.6875C88.7429 22.3409 88.8537 21.8977 88.8537 21.358C88.8537 20.8182 88.7429 20.3722 88.5213 20.0199C88.2997 19.6619 87.973 19.3949 87.5412 19.2188C87.1094 19.0369 86.5781 18.946 85.9474 18.946H83.8679V33H79.6491ZM89.4759 25.0227L93.8224 33H89.2202L84.9588 25.0227H89.4759ZM96.0398 33V15.5455H100.259V22.9261H100.489L106.259 15.5455H111.227L105.04 23.3352L111.338 33H106.293L101.946 26.1392L100.259 28.2699V33H96.0398Z" fill="white"/>
<path d="M116.321 33V15.5455H120.54V29.5739H127.801V33H116.321ZM134.495 33H129.961L135.85 15.5455H141.467L147.356 33H142.822L138.722 19.9432H138.586L134.495 33ZM133.89 26.1307H143.367V29.3352H133.89V26.1307ZM149.735 33V15.5455H157.013C158.32 15.5455 159.414 15.7301 160.295 16.0994C161.181 16.4687 161.846 16.9858 162.289 17.6506C162.738 18.3153 162.962 19.0852 162.962 19.9602C162.962 20.625 162.823 21.2188 162.545 21.7415C162.266 22.2585 161.883 22.6875 161.394 23.0284C160.906 23.3693 160.34 23.608 159.698 23.7443V23.9148C160.403 23.9489 161.053 24.1392 161.65 24.4858C162.252 24.8324 162.735 25.3153 163.099 25.9347C163.462 26.5483 163.644 27.2756 163.644 28.1165C163.644 29.054 163.406 29.892 162.928 30.6307C162.451 31.3636 161.761 31.9432 160.857 32.3693C159.954 32.7898 158.857 33 157.567 33H149.735ZM153.954 29.5994H156.562C157.477 29.5994 158.15 29.4261 158.582 29.0795C159.019 28.733 159.238 28.25 159.238 27.6307C159.238 27.1818 159.133 26.7955 158.923 26.4716C158.712 26.142 158.414 25.8892 158.028 25.7131C157.641 25.5312 157.178 25.4403 156.638 25.4403H153.954V29.5994ZM153.954 22.7216H156.289C156.749 22.7216 157.158 22.6449 157.516 22.4915C157.874 22.3381 158.153 22.1165 158.352 21.8267C158.556 21.5369 158.658 21.1875 158.658 20.7784C158.658 20.1932 158.451 19.733 158.036 19.3977C157.621 19.0625 157.062 18.8949 156.357 18.8949H153.954V22.7216Z" fill="#F4B639"/>
</svg>
