<svg width="220" height="44" viewBox="0 0 220 44" fill="none" xmlns="http://www.w3.org/2000/svg">
<circle cx="2" cy="6" r="2" fill="#182951" fill-opacity="0.35"/>
<circle cx="12" cy="6" r="2" fill="#182951" fill-opacity="0.35"/>
<circle cx="22" cy="6" r="2" fill="#182951" fill-opacity="0.35"/>
<circle cx="2" cy="16" r="2" fill="#182951" fill-opacity="0.35"/>
<circle cx="12" cy="16" r="2" fill="#182951"/>
<circle cx="22" cy="16" r="2" fill="#182951" fill-opacity="0.35"/>
<circle cx="2" cy="26" r="2" fill="#182951" fill-opacity="0.35"/>
<circle cx="12" cy="26" r="2" fill="#182951" fill-opacity="0.35"/>
<circle cx="22" cy="26" r="2" fill="#182951" fill-opacity="0.35"/>
<path d="M41.2841 13.5455L45.1875 26.3295H45.3324L49.2358 13.5455H53.9574L48.0682 31H42.4517L36.5625 13.5455H41.2841ZM56.3366 31V13.5455H68.5071V16.9716H60.5554V20.5511H67.8849V23.9858H60.5554V27.5739H68.5071V31H56.3366ZM71.6491 31V13.5455H78.8594C80.1662 13.5455 81.294 13.7812 82.2429 14.2528C83.1974 14.7187 83.9332 15.3892 84.4503 16.2642C84.9673 17.1335 85.2259 18.1648 85.2259 19.358C85.2259 20.5682 84.9616 21.5966 84.4332 22.4432C83.9048 23.2841 83.1548 23.9261 82.1832 24.3693C81.2116 24.8068 80.0611 25.0256 78.7315 25.0256H74.1719V21.7017H77.9474C78.5838 21.7017 79.1151 21.6193 79.5412 21.4545C79.973 21.2841 80.2997 21.0284 80.5213 20.6875C80.7429 20.3409 80.8537 19.8977 80.8537 19.358C80.8537 18.8182 80.7429 18.3722 80.5213 18.0199C80.2997 17.6619 79.973 17.3949 79.5412 17.2188C79.1094 17.0369 78.5781 16.946 77.9474 16.946H75.8679V31H71.6491ZM81.4759 23.0227L85.8224 31H81.2202L76.9588 23.0227H81.4759ZM88.0398 31V13.5455H92.2585V20.9261H92.4886L98.2585 13.5455H103.227L97.0398 21.3352L103.338 31H98.2926L93.946 24.1392L92.2585 26.2699V31H88.0398Z" fill="#182951"/>
<path d="M108.321 31V13.5455H112.54V27.5739H119.801V31H108.321ZM126.495 31H121.961L127.85 13.5455H133.467L139.356 31H134.822L130.722 17.9432H130.586L126.495 31ZM125.89 24.1307H135.367V27.3352H125.89V24.1307ZM141.735 31V13.5455H149.013C150.32 13.5455 151.414 13.7301 152.295 14.0994C153.181 14.4687 153.846 14.9858 154.289 15.6506C154.738 16.3153 154.962 17.0852 154.962 17.9602C154.962 18.625 154.823 19.2188 154.545 19.7415C154.266 20.2585 153.883 20.6875 153.394 21.0284C152.906 21.3693 152.34 21.608 151.698 21.7443V21.9148C152.403 21.9489 153.053 22.1392 153.65 22.4858C154.252 22.8324 154.735 23.3153 155.099 23.9347C155.462 24.5483 155.644 25.2756 155.644 26.1165C155.644 27.054 155.406 27.892 154.928 28.6307C154.451 29.3636 153.761 29.9432 152.857 30.3693C151.954 30.7898 150.857 31 149.567 31H141.735ZM145.954 27.5994H148.562C149.477 27.5994 150.15 27.4261 150.582 27.0795C151.019 26.733 151.238 26.25 151.238 25.6307C151.238 25.1818 151.133 24.7955 150.923 24.4716C150.712 24.142 150.414 23.8892 150.028 23.7131C149.641 23.5312 149.178 23.4403 148.638 23.4403H145.954V27.5994ZM145.954 20.7216H148.289C148.749 20.7216 149.158 20.6449 149.516 20.4915C149.874 20.3381 150.153 20.1165 150.352 19.8267C150.556 19.5369 150.658 19.1875 150.658 18.7784C150.658 18.1932 150.451 17.733 150.036 17.3977C149.621 17.0625 149.062 16.8949 148.357 16.8949H145.954V20.7216Z" fill="#F4B639"/>
</svg>
